<?xml version="1.0" encoding="utf-8"?>
<!-- Generator: Adobe Illustrator 25.0.0, SVG Export Plug-In . SVG Version: 6.00 Build 0)  -->
<svg version="1.1" id="Layer_1" xmlns="http://www.w3.org/2000/svg" xmlns:xlink="http://www.w3.org/1999/xlink" x="0px" y="0px"
	 viewBox="0 0 792 612" style="enable-background:new 0 0 792 612;" xml:space="preserve">
<style type="text/css">
	.st0{fill:#FFFFFF;}
</style>
<g id="STORM_logo">
	<g id="STORM_LOGO">
		<g id="R">
			<g>
				<path class="st0" d="M539.45,412.98c27.91-73.49,38.51-145.01,38.51-223.61c0-7.54-0.3-28.96-0.3-28.96
					c-83.95-46.77-172.61-45.22-172.61-45.22v380.99h35.37v-76.03c63.35,0,88.5,33.5,99.03,76.03h37.52
					C571.5,440.72,539.45,412.98,539.45,412.98z M503.94,393.69c0,0-30.06-11.07-63.52-11.07l0.02-227.06
					c34.34,4.52,67.46,13.73,99.01,28.04C539.45,183.6,555.02,284.63,503.94,393.69z"/>
			</g>
		</g>
		<g id="M">
			<path class="st0" d="M592.69,496.17l37.72,0.06v-252.1c15.1,13.42,24.82,24.51,34.85,37.07v214.98h37.94V339.76
				c17.87,34.2,37.57,87.38,37.57,156.41c0,0,35.23,0,37.83,0c0-138.25-72.88-258.79-185.91-327.25L592.69,496.17L592.69,496.17z"/>
		</g>
		<g id="O">
			<g>
				<path class="st0" d="M280.62,133.26v234.53h108.81V115.18C389.43,115.18,338.1,114.71,280.62,133.26z M321,329.24l-0.07-167.86
					c9.97-2.69,28.16-5.16,28.16-5.16l0.02,173.02H321z"/>
			</g>
		</g>
		<g id="T">
			<path class="st0" d="M153.5,254.24v-51.1c0,0,46.03-41.05,114.27-65.41v40.38c0,0-23.43,9.6-40.38,19.63v170.05h-35.65V221.1
				C171.75,235.72,153.5,254.24,153.5,254.24z"/>
		</g>
		<g id="S">
			<path class="st0" d="M15.88,496.17h373.55V382.62H73.05c13.73-40.56,33.71-74.14,64.98-111.66v-54.23c0,0-89.24,75-114.5,203.4
				h326.16l0.14,38.09H17.77C16.1,471.2,15.88,496.17,15.88,496.17z"/>
		</g>
	</g>
</g>
</svg>
